<svg width="48" height="48" viewBox="0 0 48 48" fill="none" xmlns="http://www.w3.org/2000/svg">
<g filter="url(#filter0_d)">
<path d="M4 20C4 8.95431 12.9543 0 24 0C35.0457 0 44 8.95431 44 20C44 31.0457 35.0457 40 24 40C12.9543 40 4 31.0457 4 20Z" fill="#F7F7F7"/>
<path d="M32.4299 8.75572L9.83808 17.9356C8.92895 18.3631 8.62146 19.2193 9.6183 19.6839L15.4141 21.6246L29.4275 12.4989C30.1927 11.9259 30.976 12.0787 30.302 12.7089L18.2663 24.1918L17.8882 29.0513C18.2384 29.8016 18.8796 29.8051 19.2886 29.4322L22.6185 26.1122L28.3214 30.612C29.6459 31.4383 30.3666 30.905 30.6516 29.3906L34.3922 10.7271C34.7806 8.86286 34.1182 8.04149 32.4299 8.75572Z" fill="#134731"/>
</g>
<defs>
<filter id="filter0_d" x="0" y="0" width="48" height="48" filterUnits="userSpaceOnUse" color-interpolation-filters="sRGB">
<feFlood flood-opacity="0" result="BackgroundImageFix"/>
<feColorMatrix in="SourceAlpha" type="matrix" values="0 0 0 0 0 0 0 0 0 0 0 0 0 0 0 0 0 0 127 0"/>
<feOffset dy="4"/>
<feGaussianBlur stdDeviation="2"/>
<feColorMatrix type="matrix" values="0 0 0 0 0 0 0 0 0 0 0 0 0 0 0 0 0 0 0.25 0"/>
<feBlend mode="normal" in2="BackgroundImageFix" result="effect1_dropShadow"/>
<feBlend mode="normal" in="SourceGraphic" in2="effect1_dropShadow" result="shape"/>
</filter>
</defs>
</svg>
